<?xml version="1.0" encoding="utf-8"?>
<!-- Generator: Adobe Illustrator 16.0.0, SVG Export Plug-In . SVG Version: 6.00 Build 0)  -->
<!DOCTYPE svg PUBLIC "-//W3C//DTD SVG 1.1//EN" "http://www.w3.org/Graphics/SVG/1.1/DTD/svg11.dtd">
<svg version="1.1" xmlns="http://www.w3.org/2000/svg" xmlns:xlink="http://www.w3.org/1999/xlink" x="0px" y="0px"
	 width="595.28px" height="841.89px" viewBox="0 0 595.28 841.89" enable-background="new 0 0 595.28 841.89" xml:space="preserve">
<g id="Layer_4" display="none">
	<polygon display="inline" fill="#BCBEC0" points="267.396,352.681 313.41,490.49 287.25,367.503 	"/>
	<polygon display="inline" fill="#BCBEC0" points="267.356,353.582 223.646,490.492 278.142,384.861 	"/>
	<g display="inline">
		<path fill="#594A42" d="M112.253,445.119c0,4.096-1.346,7.456-4.037,10.081c-2.692,2.626-6.086,3.938-10.181,3.938H80.301v-77.527
			h17.734c4.128,0,7.53,1.313,10.205,3.938c2.675,2.625,4.013,5.986,4.013,10.081V445.119z M105.367,444.426v-48.2
			c0-2.543-0.801-4.599-2.402-6.168c-1.603-1.568-3.675-2.354-6.218-2.354h-9.561v65.342h9.165c2.675,0,4.846-0.768,6.514-2.304
			S105.367,447.102,105.367,444.426z"/>
		<path fill="#594A42" d="M169.609,453.641c0,1.618-0.521,2.939-1.561,3.963s-2.37,1.535-3.987,1.535h-21.104
			c-1.619,0-2.94-0.512-3.964-1.535s-1.535-2.345-1.535-3.963v-72.029h6.886v71.435h18.379v-71.435h6.886V453.641z"/>
		<path fill="#594A42" d="M223.25,453.641c0,1.618-0.513,2.939-1.536,3.963s-2.345,1.535-3.963,1.535h-18.032
			c-1.618,0-2.939-0.512-3.963-1.535c-1.024-1.023-1.536-2.345-1.536-3.963v-19.667h6.887v19.072h15.258v-71.435h6.886V453.641z"/>
		<path fill="#594A42" d="M346.463,459.139h-7.232c0,0-14.165-40.628-14.416-41.513s0.432-1.388,0.941-1.388s12.286,0,12.286,0
			v-28.534h-17.686v71.435h-6.886v-77.527h25.958c1.618,0,2.939,0.513,3.963,1.535c1.023,1.024,1.536,2.346,1.536,3.964v29.426
			c0,3.732-2.511,5.598-7.53,5.598c-0.495,0-1.222-0.024-2.18-0.074s-1.651-0.074-2.08-0.074
			C337.596,434.337,342.037,446.722,346.463,459.139z"/>
		<path fill="#594A42" d="M402.861,445.119c0,4.096-1.346,7.456-4.037,10.081c-2.692,2.626-6.086,3.938-10.181,3.938h-17.734
			v-77.527h17.734c4.128,0,7.53,1.313,10.205,3.938c2.675,2.625,4.013,5.986,4.013,10.081V445.119z M395.976,444.426v-48.2
			c0-2.543-0.801-4.599-2.402-6.168c-1.603-1.568-3.675-2.354-6.218-2.354h-9.561v65.342h9.165c2.675,0,4.846-0.768,6.514-2.304
			S395.976,447.102,395.976,444.426z"/>
		<path fill="#594A42" d="M435.177,459.139h-6.886v-77.527h6.886V459.139z"/>
		<path fill="#594A42" d="M492.71,459.139h-4.756l-20.707-57.019v57.019h-6.489v-77.527h5.152l20.311,56.028v-56.028h6.489V459.139z
			"/>
		<polygon fill="#594A42" points="222.072,490.492 267.396,352.681 313.41,490.49 311.832,490.492 267.41,380.327 223.646,490.492 
					"/>
		<circle fill="#594A42" cx="267.396" cy="459.14" r="20.47"/>
	</g>
</g>
<g id="Layer_1">
	<g>
		<linearGradient id="SVGID_1_" gradientUnits="userSpaceOnUse" x1="927.0313" y1="310.1621" x2="644.1416" y2="310.1621">
			<stop  offset="0" style="stop-color:#D5D9E3"/>
			<stop  offset="1" style="stop-color:#898F95"/>
		</linearGradient>
		<path fill="url(#SVGID_1_)" d="M646.686,364.112h-2.544c10.102-30.992,29.538-58.121,55.901-77.57
			c26.898-19.842,58.836-30.33,92.36-30.33c27.636,0,54.781,7.333,78.503,21.206c23.023,13.464,42.609,33.344,56.125,56.339h-2.416
			c-31.556-46.478-78.126-74.812-132.256-74.812C725.766,258.945,662.092,306.514,646.686,364.112z"/>
		<linearGradient id="SVGID_2_" gradientUnits="userSpaceOnUse" x1="975.207" y1="531.1182" x2="696.5186" y2="531.1182">
			<stop  offset="0" style="stop-color:#D5D9E3"/>
			<stop  offset="1" style="stop-color:#888F95"/>
		</linearGradient>
		<path fill="url(#SVGID_2_)" d="M827.405,584.537c-52.854,0-102.021-27.068-130.887-71.426h2.534
			c22.122,37.576,76.217,68.391,128.35,68.391c66.258,0,125.008-40.973,145.883-103.803h1.922
			C954.043,541.4,894.581,584.537,827.405,584.537z"/>
	</g>
</g>
<g id="Layer_2">
	<g>
		<path fill="#8A8F95" d="M968.407,363.398c0,1.084-0.355,1.984-1.066,2.7c-0.71,0.717-1.602,1.075-2.674,1.075h-3.956v6.666h-2.403
			v-24.244h2.403v0.487c0.951-0.12,1.903-0.241,2.854-0.361c1.204-0.156,2.15-0.235,2.836-0.235c1.338,0,2.006,0.657,2.006,1.97
			V363.398z M966.005,363.037v-11.292l-5.294,0.145v13.171h3.324C965.348,365.06,966.005,364.385,966.005,363.037z"/>
		<path fill="#8A8F95" d="M985.762,367.173h-2.402v-15.429l-5.294,0.145v15.284h-2.403V338.9h2.403v11.183
			c0.951-0.12,1.903-0.241,2.854-0.361c1.204-0.156,2.15-0.235,2.836-0.235c1.338,0,2.006,0.657,2.006,1.97V367.173z"/>
		<path fill="#8A8F95" d="M1003.143,365.132c0,1.36-0.681,2.041-2.041,2.041h-6.035c-1.349,0-2.023-0.681-2.023-2.041v-13.496
			c0-1.361,0.675-2.041,2.023-2.041h6.035c1.36,0,2.041,0.68,2.041,2.041V365.132z M1000.74,365.06v-13.352h-5.294v13.352H1000.74z"
			/>
		<path fill="#8A8F95" d="M1017.394,367.173h-3.415c-1.349,0-2.023-0.681-2.023-2.041v-13.424h-2.114v-2.113h2.114v-5.475h2.366
			v5.475h3.072v2.113h-3.072v13.352h3.072V367.173z"/>
		<path fill="#8A8F95" d="M1034.378,365.132c0,1.36-0.681,2.041-2.041,2.041h-6.035c-1.349,0-2.023-0.681-2.023-2.041v-13.496
			c0-1.361,0.675-2.041,2.023-2.041h6.035c1.36,0,2.041,0.68,2.041,2.041V365.132z M1031.976,365.06v-13.352h-5.294v13.352H1031.976
			z"/>
	</g>
	<g>
		<path fill="#8A8F95" d="M599.685,497.434H597.3v-0.488c-2.578,0.398-4.006,0.597-4.283,0.597c-1.023,0-1.848-0.346-2.475-1.039
			c-0.625-0.692-0.939-1.557-0.939-2.593v-10.279c0-1.084,0.355-1.984,1.066-2.701c0.711-0.716,1.602-1.074,2.674-1.074h3.957
			V469.16h2.385V497.434z M597.3,495.248v-13.279h-3.324c-1.326,0-1.988,0.681-1.988,2.041v9.395c0,1.35,0.662,2.023,1.988,2.023
			C594.288,495.428,595.396,495.368,597.3,495.248z"/>
		<path fill="#8A8F95" d="M616.827,495.393c0,1.36-0.674,2.041-2.023,2.041h-5.781c-1.348,0-2.023-0.681-2.023-2.041v-13.496
			c0-1.361,0.676-2.041,2.023-2.041h5.781c1.35,0,2.023,0.68,2.023,2.041v6.323l-0.813,0.849h-6.684v6.359h5.166v-3.215h2.33
			V495.393z M614.497,487.154v-5.294h-5.166v5.294H614.497z"/>
		<path fill="#8A8F95" d="M633.677,495.393c0,1.36-0.68,2.041-2.041,2.041h-5.51c-1.361,0-2.041-0.681-2.041-2.041v-3.993h2.365
			v3.956h4.861v-3.504l-6.287-5.149c-0.604-0.481-0.904-1.108-0.904-1.879v-2.927c0-1.361,0.682-2.041,2.041-2.041h5.439
			c1.361,0,2.041,0.68,2.041,2.041v3.505h-2.33v-3.469h-4.861v3.071l6.342,5.148c0.59,0.471,0.885,1.108,0.885,1.916V495.393z"/>
		<path fill="#8A8F95" d="M643.39,476.007h-2.439v-3.035h2.439V476.007z M643.353,497.434h-2.367v-17.578h2.367V497.434z"/>
		<path fill="#8A8F95" d="M660.771,502.059c0,1.361-0.68,2.041-2.041,2.041h-5.709c-1.385,0-2.078-0.86-2.078-2.583
			c0-0.205,0.01-0.509,0.027-0.912c0.018-0.404,0.027-0.696,0.027-0.876h2.367v2.33h5.021v-4.625h-3.955
			c-1.072,0-1.965-0.358-2.674-1.075c-0.711-0.716-1.066-1.616-1.066-2.7v-10.28c0-1.036,0.313-1.899,0.939-2.593
			c0.625-0.692,1.451-1.039,2.475-1.039c0.277,0,1.705,0.199,4.281,0.597v-0.487h2.385V502.059z M658.386,495.32v-13.279
			c-1.902-0.12-3.01-0.181-3.324-0.181c-1.324,0-1.986,0.675-1.986,2.023v9.413c0,1.349,0.662,2.023,1.986,2.023H658.386z"/>
		<path fill="#8A8F95" d="M678.187,497.434h-2.402v-15.429l-5.293,0.145v15.284h-2.404v-17.578h2.404v0.487
			c0.939-0.12,1.885-0.247,2.836-0.38c1.156-0.145,2.107-0.217,2.854-0.217c1.338,0,2.006,0.657,2.006,1.97V497.434z"/>
	</g>
</g>
<g id="Layer_3">
	<circle fill="#D5D9E3" cx="793.06" cy="442.352" r="15.981"/>
	<path fill="#D5D9E3" d="M621.555,443.994c0,4.096-1.346,7.456-4.037,10.081c-2.691,2.626-6.086,3.938-10.18,3.938h-17.734v-77.527
		h17.734c4.127,0,7.529,1.313,10.205,3.938c2.674,2.625,4.012,5.986,4.012,10.081V443.994z M614.67,443.301v-48.2
		c0-2.543-0.801-4.599-2.402-6.168c-1.604-1.568-3.676-2.354-6.219-2.354h-9.561v65.342h9.166c2.674,0,4.846-0.768,6.514-2.304
		S614.67,445.977,614.67,443.301z"/>
	<path fill="#D5D9E3" d="M679.286,452.516c0,1.618-0.521,2.939-1.561,3.963c-1.041,1.023-2.371,1.535-3.988,1.535h-21.104
		c-1.619,0-2.939-0.512-3.963-1.535s-1.535-2.345-1.535-3.963v-72.029h6.885v71.435h18.379v-71.435h6.887V452.516z"/>
	<path fill="#D5D9E3" d="M733.898,452.516c0,1.618-0.514,2.939-1.537,3.963s-2.344,1.535-3.963,1.535h-18.031
		c-1.619,0-2.939-0.512-3.963-1.535c-1.025-1.023-1.537-2.345-1.537-3.963v-19.667h6.887v19.072h15.258v-71.435h6.887V452.516z"/>
	<path fill="#D5D9E3" d="M884.131,458.014h-7.232c0,0-14.165-40.628-14.416-41.513s0.432-1.388,0.941-1.388s12.286,0,12.286,0
		v-28.534h-17.686v71.435h-6.886v-77.527h25.958c1.618,0,2.939,0.513,3.963,1.535c1.023,1.024,1.536,2.346,1.536,3.964v29.426
		c0,3.732-2.511,5.598-7.53,5.598c-0.495,0-1.222-0.024-2.18-0.074s-1.651-0.074-2.08-0.074
		C875.264,433.212,879.705,445.597,884.131,458.014z"/>
	<path fill="#D5D9E3" d="M940.529,443.994c0,4.096-1.346,7.456-4.037,10.081c-2.692,2.626-6.086,3.938-10.181,3.938h-17.734v-77.527
		h17.734c4.128,0,7.53,1.313,10.205,3.938c2.675,2.625,4.013,5.986,4.013,10.081V443.994z M933.644,443.301v-48.2
		c0-2.543-0.801-4.599-2.402-6.168c-1.603-1.568-3.675-2.354-6.218-2.354h-9.561v65.342h9.165c2.675,0,4.846-0.768,6.514-2.304
		S933.644,445.977,933.644,443.301z"/>
	<path fill="#D5D9E3" d="M972.845,458.014h-6.886v-77.527h6.886V458.014z"/>
	<path fill="#D5D9E3" d="M1030.378,458.014h-4.756l-20.707-57.019v57.019h-6.489v-77.527h5.152l20.311,56.028v-56.028h6.489V458.014
		z"/>
	<polygon fill="#3D3F43" points="787.674,329.693 838.979,504.547 809.812,348.5 	"/>
	<polygon fill="#3D3F43" points="787.63,330.836 748.895,494.549 799.655,370.523 	"/>
	<polygon fill="#D5D9E3" points="747.139,494.549 787.674,329.693 838.979,504.547 837.219,504.549 787.689,364.771 
		748.895,494.549 	"/>
</g>
</svg>
